<svg xmlns="http://www.w3.org/2000/svg" xmlns:xlink="http://www.w3.org/1999/xlink">
	<!-- MinIO Logo -->
	<symbol id="minio-logo" viewBox="0 0 162.612 24.465">
		<path d="M52.751.414h9.108v23.63h-9.108zM41.711.74l-18.488 9.92a.919.919 0 0 1-.856 0L3.879.74A2.808 2.808 0 0 0 2.558.414h-.023A2.4 2.4 0 0 0 0 2.641v21.376h9.1V13.842a.918.918 0 0 1 1.385-.682l10.361 5.568a3.634 3.634 0 0 0 3.336.028l10.933-5.634a.917.917 0 0 1 1.371.69v10.205h9.1V2.641A2.4 2.4 0 0 0 43.055.414h-.023a2.808 2.808 0 0 0-1.321.326zm65.564-.326h-9.237v10.755a.913.913 0 0 1-1.338.706L72.762.675a2.824 2.824 0 0 0-1.191-.261h-.016a2.4 2.4 0 0 0-2.535 2.227v21.377h9.163V13.275a.914.914 0 0 1 1.337-.707l24.032 11.2a2.813 2.813 0 0 0 1.188.26 2.4 2.4 0 0 0 2.535-2.227zm7.161 23.63V.414h4.191v23.63zm28.856.421c-11.274 0-19.272-4.7-19.272-12.232C124.02 4.741 132.066 0 143.292 0s19.32 4.7 19.32 12.233-7.902 12.232-19.32 12.232zm0-21.333c-8.383 0-14.84 3.217-14.84 9.1 0 5.926 6.457 9.1 14.84 9.1s14.887-3.174 14.887-9.1c0-5.883-6.504-9.1-14.887-9.1z" fill="currentColor" />
	</symbol>
	<!-- Moon -->
	<symbol id="moon" viewBox="0 0 48 48">
		<path d="M24 42q-7.5 0-12.75-5.25T6 24q0-6.75 3.975-11.45Q13.95 7.85 20.4 6.5q2.05-.4 2.8.7t-.05 3q-.45 1.15-.7 2.35-.25 1.2-.25 2.45 0 4.5 3.15 7.65Q28.5 25.8 33 25.8q1.25 0 2.425-.225 1.175-.225 2.275-.625 2.15-.8 3.2.075 1.05.875.55 2.975-1.35 6.05-6.05 10.025Q30.7 42 24 42Zm0-3q5.45 0 9.5-3.375t5.05-7.925q-1.25.55-2.675.825Q34.45 28.8 33 28.8q-5.75 0-9.775-4.025T19.2 15q0-1.2.25-2.575.25-1.375.9-3.125-4.9 1.35-8.125 5.475Q9 18.9 9 24q0 6.25 4.375 10.625T24 39Zm-.2-14.85Z" />
	</symbol>
	<!-- Sun -->
	<symbol id="sun" viewBox="0 0 17 17">
		<path d="M8.5 2.898c-.167 0-.306-.055-.415-.164s-.164-.248-.164-.415V.58c0-.167.055-.306.164-.415S8.333 0 8.5 0s.306.055.415.164.164.248.164.415v1.739c0 .167-.055.306-.164.415s-.248.164-.415.164zm3.96 1.642c-.116-.116-.174-.251-.174-.406s.058-.29.174-.406l1.217-1.236c.116-.116.254-.174.415-.174s.299.058.415.174.174.251.174.406-.058.29-.174.406L13.272 4.54c-.116.116-.251.174-.406.174s-.29-.058-.406-.174zm2.222 4.54c-.167 0-.306-.055-.415-.164s-.164-.248-.164-.415.055-.306.164-.415.248-.164.415-.164h1.739c.167 0 .306.055.415.164S17 8.333 17 8.5s-.055.306-.164.415-.248.164-.415.164h-1.739zM8.5 17c-.167 0-.306-.055-.415-.164s-.164-.248-.164-.415v-1.739c0-.167.055-.306.164-.415s.248-.164.415-.164.306.055.415.164.164.248.164.415v1.739c0 .167-.055.306-.164.415S8.667 17 8.5 17zM3.728 4.54L2.492 3.323c-.116-.116-.174-.254-.174-.415s.058-.299.174-.415.251-.174.406-.174.29.058.406.174L4.54 3.728c.116.116.174.251.174.406s-.058.29-.174.406c-.116.103-.254.155-.415.155s-.293-.052-.396-.155zm9.968 9.968l-1.236-1.236c-.116-.116-.174-.251-.174-.406s.058-.29.174-.406c.103-.103.235-.155.396-.155s.299.052.415.155l1.256 1.217c.116.116.171.254.164.415s-.061.299-.164.415c-.116.116-.254.174-.415.174s-.299-.058-.415-.174h0zM.58 9.08c-.167 0-.306-.055-.415-.164S0 8.667 0 8.5s.055-.306.164-.415.248-.164.415-.164h1.739c.167 0 .306.055.415.164s.164.248.164.415-.055.306-.164.415-.248.164-.415.164H.58zm1.912 5.428c-.116-.116-.174-.251-.174-.406s.058-.29.174-.406l1.236-1.236c.103-.103.235-.155.396-.155s.299.052.415.155c.116.116.174.254.174.415s-.058.299-.174.415l-1.217 1.217c-.116.116-.254.174-.415.174s-.299-.058-.415-.174h0zM8.5 13.136a4.47 4.47 0 0 1-3.284-1.352A4.47 4.47 0 0 1 3.864 8.5a4.47 4.47 0 0 1 1.352-3.284A4.47 4.47 0 0 1 8.5 3.864a4.47 4.47 0 0 1 3.284 1.352A4.47 4.47 0 0 1 13.136 8.5a4.47 4.47 0 0 1-1.352 3.284A4.47 4.47 0 0 1 8.5 13.136zm0-1.159a3.35 3.35 0 0 0 2.463-1.014A3.35 3.35 0 0 0 11.977 8.5a3.35 3.35 0 0 0-1.014-2.463A3.35 3.35 0 0 0 8.5 5.023a3.35 3.35 0 0 0-2.463 1.014A3.35 3.35 0 0 0 5.023 8.5a3.35 3.35 0 0 0 1.014 2.463A3.35 3.35 0 0 0 8.5 11.977z" fill="currentColor" />
	</symbol>
	<!-- Book -->
	<symbol id="book" viewBox="0 0 18 16" fill="none">
		<path d="M4.09286 12.7785C4.87857 12.7785 5.63929 12.8949 6.375 13.1275C7.11071 13.3602 7.83571 13.7181 8.55 14.2013V2.97987C7.90714 2.40716 7.2 1.97315 6.42857 1.67785C5.65714 1.38255 4.87857 1.2349 4.09286 1.2349C3.55 1.2349 3.05357 1.29754 2.60357 1.42282C2.15357 1.5481 1.67143 1.72707 1.15714 1.95973C1.08571 1.99553 1.03571 2.04027 1.00714 2.09396C0.978571 2.14765 0.964286 2.20134 0.964286 2.25503V13.1544C0.964286 13.2438 0.992857 13.311 1.05 13.3557C1.10714 13.4004 1.17143 13.4139 1.24286 13.396C1.6 13.1812 2.02857 13.0246 2.52857 12.9262C3.02857 12.8277 3.55 12.7785 4.09286 12.7785ZM9.51429 14.2013C10.2429 13.7181 10.9607 13.3602 11.6679 13.1275C12.375 12.8949 13.1214 12.7785 13.9071 12.7785C14.45 12.7785 14.975 12.8277 15.4821 12.9262C15.9893 13.0246 16.4143 13.1454 16.7571 13.2886C16.8286 13.3244 16.8929 13.3199 16.95 13.2752C17.0071 13.2304 17.0357 13.1544 17.0357 13.047V2.25503C17.0357 2.20134 17.0214 2.14765 16.9929 2.09396C16.9643 2.04027 16.9143 1.99553 16.8429 1.95973C16.3714 1.70917 15.9 1.52573 15.4286 1.4094C14.9571 1.29306 14.45 1.2349 13.9071 1.2349C13.1214 1.2349 12.3536 1.38255 11.6036 1.67785C10.8536 1.97315 10.1571 2.40716 9.51429 2.97987V14.2013ZM9.70386 15.4635C9.29873 15.7533 8.74672 15.7502 8.34198 15.4599C7.82063 15.0859 7.26854 14.7782 6.68571 14.5369C5.84286 14.1879 4.97857 14.0134 4.09286 14.0134C3.63571 14.0134 3.18214 14.0761 2.73214 14.2013C2.28214 14.3266 1.82857 14.4787 1.37143 14.6577C1.04286 14.8546 0.732143 14.8233 0.439286 14.5638C0.146429 14.3043 0 13.9418 0 13.4765V2.1745C0 1.88814 0.0571429 1.62864 0.171429 1.39597C0.285714 1.16331 0.442857 0.98434 0.642857 0.859061C1.18571 0.572707 1.74643 0.357942 2.325 0.214765C2.90357 0.0715887 3.49286 0 4.09286 0C4.97857 0 5.83929 0.1566 6.675 0.469799C7.51071 0.782998 8.3 1.2528 9.04286 1.87919C9.75714 1.2528 10.5286 0.782998 11.3571 0.469799C12.1857 0.1566 13.0357 0 13.9071 0C14.5071 0 15.0929 0.0715887 15.6643 0.214765C16.2357 0.357942 16.7929 0.572707 17.3357 0.859061C17.55 0.98434 17.7143 1.16331 17.8286 1.39597C17.9429 1.62864 18 1.88814 18 2.1745V13.4765C18 13.9597 17.8393 14.3311 17.5179 14.5906C17.1964 14.8501 16.8786 14.8725 16.5643 14.6577C16.1214 14.4609 15.6786 14.3043 15.2357 14.1879C14.7929 14.0716 14.35 14.0134 13.9071 14.0134C13.0214 14.0134 12.1679 14.1879 11.3464 14.5369C10.7766 14.779 10.229 15.0879 9.70386 15.4635Z" fill="currentColor" />
	</symbol>
	<!-- Book Active -->
	<symbol id="book-active" viewBox="0 0 18 16">
		<path d="M4.09286 12.7785C4.87857 12.7785 5.63929 12.8949 6.375 13.1275C7.11071 13.3602 7.83571 13.7181 8.55 14.2013V2.97987C7.90714 2.40716 7.2 1.97315 6.42857 1.67785C5.65714 1.38255 4.87857 1.2349 4.09286 1.2349C3.55 1.2349 3.05357 1.29754 2.60357 1.42282C2.15357 1.5481 1.67143 1.72707 1.15714 1.95973C1.08571 1.99553 1.03571 2.04027 1.00714 2.09396C0.978571 2.14765 0.964286 2.20134 0.964286 2.25503V13.1544C0.964286 13.2438 0.992857 13.311 1.05 13.3557C1.10714 13.4004 1.17143 13.4139 1.24286 13.396C1.6 13.1812 2.02857 13.0246 2.52857 12.9262C3.02857 12.8277 3.55 12.7785 4.09286 12.7785ZM9.51429 14.2013C10.2429 13.7181 10.9607 13.3602 11.6679 13.1275C12.375 12.8949 13.1214 12.7785 13.9071 12.7785C14.45 12.7785 14.975 12.8277 15.4821 12.9262C15.9893 13.0246 16.4143 13.1454 16.7571 13.2886C16.8286 13.3244 16.8929 13.3199 16.95 13.2752C17.0071 13.2304 17.0357 13.1544 17.0357 13.047V2.25503C17.0357 2.20134 17.0214 2.14765 16.9929 2.09396C16.9643 2.04027 16.9143 1.99553 16.8429 1.95973C16.3714 1.70917 15.9 1.52573 15.4286 1.4094C14.9571 1.29306 14.45 1.2349 13.9071 1.2349C13.1214 1.2349 12.3536 1.38255 11.6036 1.67785C10.8536 1.97315 10.1571 2.40716 9.51429 2.97987V14.2013ZM9.70386 15.4635C9.29873 15.7533 8.74672 15.7502 8.34198 15.4599C7.82063 15.0859 7.26854 14.7782 6.68571 14.5369C5.84286 14.1879 4.97857 14.0134 4.09286 14.0134C3.63571 14.0134 3.18214 14.0761 2.73214 14.2013C2.28214 14.3266 1.82857 14.4787 1.37143 14.6577C1.04286 14.8546 0.732143 14.8233 0.439286 14.5638C0.146429 14.3043 0 13.9418 0 13.4765V2.1745C0 1.88814 0.0571429 1.62864 0.171429 1.39597C0.285714 1.16331 0.442857 0.98434 0.642857 0.859061C1.18571 0.572707 1.74643 0.357942 2.325 0.214765C2.90357 0.0715887 3.49286 0 4.09286 0C4.97857 0 5.83929 0.1566 6.675 0.469799C7.51071 0.782998 8.3 1.2528 9.04286 1.87919C9.75714 1.2528 10.5286 0.782998 11.3571 0.469799C12.1857 0.1566 13.0357 0 13.9071 0C14.5071 0 15.0929 0.0715887 15.6643 0.214765C16.2357 0.357942 16.7929 0.572707 17.3357 0.859061C17.55 0.98434 17.7143 1.16331 17.8286 1.39597C17.9429 1.62864 18 1.88814 18 2.1745V13.4765C18 13.9597 17.8393 14.3311 17.5179 14.5906C17.1964 14.8501 16.8786 14.8725 16.5643 14.6577C16.1214 14.4609 15.6786 14.3043 15.2357 14.1879C14.7929 14.0716 14.35 14.0134 13.9071 14.0134C13.0214 14.0134 12.1679 14.1879 11.3464 14.5369C10.7766 14.779 10.229 15.0879 9.70386 15.4635Z" fill="currentColor" />
		<path d="M9 3C6.2 -0.599997 2.16667 0.833336 0.5 2L1 14L5 13L9 15V3Z" fill="currentColor" />
	</symbol>
	<!-- Hybrid Cloud -->
	<symbol id="hybrid-cloud" viewBox="0 0 33.976 26.825">
		<path d="M33.226 18.186l-16.237-7.9-16.239 7.9 16.239 7.89z" fill="none" stroke="#c72c48" stroke-linejoin="round" stroke-width="1.5" />
		<path d="M9.24 18.02h1.117v.559H9.24zm1.117-.545H9.24v-1.093h1.117zm0-1.64H9.24v-1.093h1.117zm0-1.639H9.24v-1.093h1.117zm0-1.639H9.24v-1.092h1.117zm0-1.638H9.24V9.826h1.117zm0-1.64H9.24V8.187h1.117zm0-1.639H9.24V6.547h1.117zm0-1.637H9.24V4.886h.559a.56.56 0 0 1 .559.559zm-1.571 0h-.908V4.886h.908zm-1.363 0h-.908V4.886h.908zM5.502 4.885h.559v1.117h-.559zm11.606 11.314h-1.117v-1.117h1.117zm0-1.676h-1.117v-1.117h1.117zm0-1.676h-1.117v-1.118h1.117zm0-1.676h-1.117v-1.117h1.117zm0-1.676h-1.117V8.378h1.117zm0-1.676h-1.117V6.702h1.117zm0-1.676h-1.117V5.026h1.117zm0-1.676h-1.117V3.35h1.117zm0-1.676h-1.117V1.674h1.117zm0-1.676h-1.117V-.002h1.117zm6.43 18.063h-1.117v-1.117h1.117zm0-1.676h-1.117v-1.117h1.117zm0-1.676h-1.117v-1.117h1.117zm0-1.676h-1.117v-1.117h1.117zm0-1.676h-1.117v-1.117h1.117zm0-1.676h-1.117V9.681h1.117zm0-1.676h-1.117v-.628a.56.56 0 0 1 .559-.559h.488v.559h.07zm4.935-.069h-1.095V7.936h1.095zm-1.653 0h-1.117V7.936h1.117zm-1.676 0h-1.117V7.936h1.117z" fill="#c72c48" />
	</symbol>
	<!-- Baremetal -->
	<symbol id="baremetal" viewBox="0 0 32.731 27.434" fill="none" stroke="#c72c48" stroke-linejoin="round" stroke-width="1.5">
		<path d="M31.122 8.142L15.936.75.749 8.142l15.187 7.379zM3.635 13.136l-2.026.986 15.187 7.379 15.186-7.379-2.027-.987M2.776 18.318l-2.026.986 15.187 7.379 15.186-7.379-2.027-.986" />
		<path d="M2.776 18.318l-2.026.986 15.187 7.379 15.186-7.379-2.027-.986" />
	</symbol>
	<!-- ECC -->
	<symbol id="ecc" viewBox="0 0 32.731 27.434" stroke-linejoin="round" stroke-width="1.5">
		<g fill="#c72c48" fill-rule="nonzero">
			<path d="M22.07 10.67H7.93a2.76 2.76 0 1 1 0-5.51h14.14a2.76 2.76 0 1 1 0 5.51h0zM7.93 6.6a1.32 1.32 0 1 0 0 2.63h14.14a1.32 1.32 0 0 0 0-2.63H7.93zm19.44 22.24H2.62A2.62 2.62 0 0 1 0 26.22V2.63A2.62 2.62 0 0 1 2.62 0h24.75A2.63 2.63 0 0 1 30 2.63v23.59a2.63 2.63 0 0 1-2.63 2.62zm-24.75-27a.79.79 0 0 0-.79.79v23.59a.78.78 0 0 0 .79.78h24.75a.78.78 0 0 0 .79-.78V2.63a.79.79 0 0 0-.79-.79H2.62z" />
			<use xlink:href="#B" />
			<path d="M8.44 17.13a2 2 0 1 1 0-4 2 2 0 1 1 0 4zm0-2.49a.52.52 0 0 0-.52.52.53.53 0 0 0 .811.519.53.53 0 0 0 .239-.519.52.52 0 0 0-.53-.52h0z" />
			<use xlink:href="#B" x="6.53" />
			<path d="M14.98 23.68a2 2 0 1 1 0-4 2 2 0 1 1 0 4zm0-2.49a.53.53 0 1 0 .457.525.53.53 0 0 0-.457-.525h0zm-6.55 2.49a2 2 0 1 1 0-4 2 2 0 1 1 0 4zm0-2.49a.53.53 0 1 0 .52.52.53.53 0 0 0-.52-.52h0zm13.1 2.49a2 2 0 1 1 0-4 2 2 0 1 1 0 4zm0-2.49a.53.53 0 1 0 .519.239.53.53 0 0 0-.519-.239h0z" />
		</g>
		<defs>
			<path id="B" d="M15 17.13a2 2 0 1 1 0-4 2 2 0 1 1 0 4zm0-2.49a.52.52 0 0 0-.53.52.53.53 0 0 0 .53.53.52.52 0 0 0 .52-.53.52.52 0 0 0-.52-.52h0z" />
		</defs>
	</symbol>
	<!-- Ref hardware -->
	<symbol id="ref-hardware" viewBox="0 0 31.737 18.835">
		<g fill="none" stroke-width="1.5" stroke="#c72c48">
			<path d="M3.464 14.617h24.809" stroke-dasharray="0.5 0.5" />
			<path d="M30.979 18.085H.75v-7.341a3.44 3.44 0 0 0 1.541-2.871c0-1.155-.578-2.233-1.541-2.871V1.749a1 1 0 0 1 1-1h28.264a.97.97 0 0 1 .973.969h0v3.328c-.925.643-1.477 1.698-1.478 2.824s.553 2.182 1.478 2.826z" stroke-miterlimit="10" />
		</g>
		<g fill="#c72c48" stroke-width=".6">
			<rect width=".979" height="5.58" rx=".489" stroke="#c72c48" x="7.197" y="4.686" />
			<rect width=".979" height="5.58" rx=".489" stroke="#c72c48" x="12.232" y="4.686" />
			<rect width=".979" height="5.58" rx=".489" stroke="#c72c48" x="17.267" y="4.686" />
			<rect width=".979" height="5.58" rx=".489" stroke="#c72c48" x="22.302" y="4.686" />
		</g>
	</symbol>
	<!-- Menu -->
	<symbol id="menu" viewBox="0 0 17 13">
		<path d="M16.034 0H.966C.433 0 0 .346 0 .773s.433.773.966.773h15.068c.533 0 .966-.346.966-.773S16.567 0 16.034 0zm0 5.409H.966c-.533 0-.966.346-.966.773s.433.773.966.773h15.068c.533 0 .966-.346.966-.773s-.433-.773-.966-.773zm0 5.409H.966c-.533 0-.966.346-.966.773s.433.773.966.773h15.068c.533 0 .966-.346.966-.773s-.433-.773-.966-.773z" fill="currentColor">
		</path>
	</symbol>
	<!-- Search -->
	<symbol id="search" viewBox="0 0 16 16">
		<path d="M11.623 11.623 15 15l-3.377-3.377a6.223 6.223 0 1 1-8.8-8.8 6.223 6.223 0 0 1 8.8 8.8Z" stroke="currentColor" stroke-width="1.5" fill="none" fill-rule="evenodd" stroke-linecap="round" stroke-linejoin="round" />
	</symbol>
	<!-- No result -->
	<symbol id="no-result" viewBox="0 0 56 56">
		<path d="M44.26 12.728c5.903 8.844 5.017 20.636-2.951 28.595h0L54 54 41.309 41.324c-7.722 7.709-19.803 8.94-28.924 2.948m-6.493-6.486C-.178 28.73.95 16.663 8.593 8.887S28.295-.24 37.472 5.653M4.415 51.642L51.639 4.474" stroke="currentColor" stroke-width="2.5" fill="none" stroke-linecap="round" stroke-linejoin="round">
		</path>
	</symbol>
	<!-- Chevron down -->
	<symbol id="chevron-down" viewBox="0 0 9 5">
		<path d="M8.071.135a.562.562 0 1 1 .733.855L4.866 4.365a.562.562 0 0 1-.732 0L.196.99A.562.562 0 1 1 .93.135L4.5 3.197 8.071.135z" fill="currentColor" fill-rule="evenodd" />
	</symbol>
	<!-- Anchor -->
	<symbol id="anchor" viewBox="0 0 12 14">
		<path d="M6 13.278a5.935 5.935 0 0 1-2.084-.384 7.076 7.076 0 0 1-1.845-1.006 5.555 5.555 0 0 1-1.318-1.405C.418 9.96.25 9.428.25 8.885V7.288l2.156 1.613-.926.927c.33.617.894 1.168 1.693 1.653s1.581.753 2.348.806V6.09H3.444v-.958h2.077V3.95c-.405-.15-.719-.373-.943-.67a1.659 1.659 0 0 1-.335-1.023 1.68 1.68 0 0 1 .52-1.246A1.7 1.7 0 0 1 6 .5c.49 0 .905.17 1.246.511s.51.756.51 1.246c0 .383-.11.724-.334 1.022s-.538.522-.943.671v1.182h2.077v.958H6.479v6.197c.767-.053 1.55-.322 2.348-.806s1.363-1.036 1.693-1.653L9.594 8.9l2.156-1.613v1.597c0 .543-.168 1.076-.503 1.598s-.775.99-1.318 1.405a7.076 7.076 0 0 1-1.845 1.006A5.935 5.935 0 0 1 6 13.278zM6 3.056c.224 0 .413-.08.567-.24a.78.78 0 0 0 .232-.56.771.771 0 0 0-.232-.566A.771.771 0 0 0 6 1.458a.78.78 0 0 0-.559.232.758.758 0 0 0-.24.567c0 .213.08.4.24.559s.346.24.559.24z" fill="currentColor" />
	</symbol>
	<!-- k8s -->
	<symbol id="k8s-logo" viewBox="0 0 18 18" fill="currentColor">
		<path d="M8.99 17.017c-1.122 0-2.244-.005-3.372 0-.423.016-.828-.173-1.085-.507L.305 11.392c-.268-.304-.367-.72-.266-1.11l1.529-6.443c.079-.374.336-.687.69-.841L8.401.137a1.33 1.33 0 0 1 1.175 0l6.145 2.853a1.22 1.22 0 0 1 .714.873l1.526 6.462c.097.362.008.748-.239 1.032l-4.305 5.21a1.22 1.22 0 0 1-1.001.454c-1.142-.005-2.283 0-3.425 0l-.001-.003zM8.546 4.084A4.81 4.81 0 0 0 5.52 5.486c-.338-.029-.644-.205-.836-.482l-.202-.202a1.73 1.73 0 0 0-.187-.171c-.099-.083-.235-.108-.358-.065a.36.36 0 0 0-.236.274c-.024.126.023.256.122.339.069.059.143.111.221.155.362.22.804.354.936.847a4.62 4.62 0 0 0-.743 3.138c0 .033 0 .085-.016.1a3.56 3.56 0 0 1-.518.265 2.24 2.24 0 0 1-.431.056 4.13 4.13 0 0 0-.554.091.35.35 0 0 0-.247.405.34.34 0 0 0 .375.267c.132-.014.261-.045.385-.092.33-.19.719-.256 1.094-.186a.26.26 0 0 1 .148.114 4.74 4.74 0 0 0 2.002 2.422c.034.021.086.056.086.085a1.99 1.99 0 0 1-.095.52 4.58 4.58 0 0 1-.334.548 1.76 1.76 0 0 0-.187.342c-.058.159.017.336.173.407a.34.34 0 0 0 .431-.079 1.11 1.11 0 0 0 .194-.354 1.63 1.63 0 0 1 .64-1.025 4.99 4.99 0 0 0 3.354.013.99.99 0 0 1 .506.651l.14.402a1.2 1.2 0 0 0 .148.284c.093.134.268.186.421.126.161-.042.259-.204.219-.364a1.53 1.53 0 0 0-.186-.397l-.39-.639a.49.49 0 0 1 .044-.513c.924-.567 1.627-1.427 1.994-2.44.016-.042.042-.11.07-.114a1.66 1.66 0 0 1 .492-.032 4.66 4.66 0 0 1 .621.196c.118.045.239.083.362.114a.39.39 0 0 0 .431-.226c.039-.152-.045-.308-.194-.36a1.47 1.47 0 0 0-.417-.11l-.772-.113c-.147-.044-.279-.125-.383-.236-.047-.046 0-.179 0-.271l-.091-1.271c-.109-.604-.344-1.178-.69-1.687.104-.427.453-.582.777-.769a2.42 2.42 0 0 0 .233-.135.94.94 0 0 0 .198-.183.37.37 0 0 0-.018-.459c-.126-.126-.326-.143-.472-.039a2.1 2.1 0 0 0-.295.261c-.278.272-.524.592-.981.624A4.89 4.89 0 0 0 9.558 4.1c-.045-.005-.086-.026-.117-.06a.96.96 0 0 1-.131-.726 6.28 6.28 0 0 0 .086-.683c.007-.103-.029-.204-.101-.278s-.172-.118-.276-.119a.39.39 0 0 0-.27.126c-.07.076-.106.176-.101.278a1.07 1.07 0 0 0 .007.196 1.4 1.4 0 0 1-.104 1.247v.005l-.003-.001zm2.515 7.875l-.413-.964-.315-.757a.5.5 0 0 1 .028-.355c.065-.127.211-.144.362-.119l1.76.291c.028.005.057.015.115.031-.292.774-.832 1.431-1.537 1.872zm-4.742-5.79a3.81 3.81 0 0 1 2.218-1.044l-.021.317-.081 1.479c.015.155-.063.304-.199.381a.37.37 0 0 1-.409-.085L6.319 6.169zM5.197 9.21c-.078-.818.116-1.639.551-2.339L7.074 8.02a1.51 1.51 0 0 1 .156.143c.073.076.102.184.076.285a.31.31 0 0 1-.202.217l-1.907.545zm1.744 2.748a3.77 3.77 0 0 1-1.528-1.87l.967-.171.828-.138a.4.4 0 0 1 .425.103c.091.127.095.295.012.427l-.704 1.646-.001.003zm4.74-5.789l-1.602 1.1a.32.32 0 0 1-.317.031c-.104-.046-.173-.144-.182-.256L9.475 5.2c.005-.023.013-.044.023-.065.822.096 1.589.459 2.179 1.034l.003.001zm1.122 3.039l-.535-.151-1.27-.354a.36.36 0 0 1-.297-.269c-.025-.131.034-.264.148-.336l1.276-1.12.135-.107a3.8 3.8 0 0 1 .54 2.337l.003-.001zM7.77 12.352l.446-.792.476-.836c.048-.113.157-.188.28-.193a.32.32 0 0 1 .296.168l.949 1.649a3.95 3.95 0 0 1-2.446 0l-.002.004zM9.011 8.19c.115.032.259.034.337.107a.9.9 0 0 1 .29.437.67.67 0 0 1-.135.502.67.67 0 0 1-.507.222c-.194-.002-.376-.086-.502-.231a.68.68 0 0 1-.136-.507.89.89 0 0 1 .299-.433c.076-.068.225-.064.355-.097h0z" />
	</symbol>
	<!-- Docker -->
	<symbol id="docker-logo" viewBox="0 0 20 15" fill="currentColor">
		<path d="M15.277 6.368c-.362-.571-.499-1.254-.385-1.919a3.76 3.76 0 0 1 .752-1.716c.448.221.839.538 1.146.929.299.389.495.844.573 1.326l.688-.052a3.13 3.13 0 0 1 1.424.229 3.84 3.84 0 0 1 .51.31c.021.032.021.074 0 .106-.196.619-.627 1.139-1.202 1.451a3.35 3.35 0 0 1-1.79.407c-.066-.011-.13.032-.143.097a12.72 12.72 0 0 1-1.467 2.747c-1.179 1.65-2.894 2.852-4.86 3.405-1.345.383-2.744.544-4.142.475-.857-.03-1.707-.158-2.533-.382-.893-.226-1.696-.716-2.299-1.405a5.84 5.84 0 0 1-1.042-1.824 8.92 8.92 0 0 1-.502-2.424v-.734c-.017-.163.031-.327.136-.454a.63.63 0 0 1 .421-.226h13.206c.48-.001.955-.097 1.396-.283l.116-.062-.002-.002zM5.187 4.094h-.824c-.16 0-.215-.044-.215-.203V2.444c0-.15.044-.203.196-.203h1.674c.153 0 .206.053.206.203v1.447c0 .158-.053.203-.215.203h-.823zm2.488-1.84h.824c.16 0 .206.045.206.203v1.451c0 .158-.054.203-.215.203H6.833c-.153 0-.206-.044-.206-.203V2.468c0-.158.045-.213.206-.213h.84l.002-.001z" />
		<path d="M10.099 4.094h-.832c-.151 0-.206-.052-.206-.195V2.432a.16.16 0 0 1 .197-.195h1.682c.143 0 .197.053.197.186V3.9a.16.16 0 0 1-.197.195H10.1l-.001-.001zm-4.902.381h.823c.151 0 .206.044.206.186v1.477a.16.16 0 0 1-.197.195H4.346a.16.16 0 0 1-.197-.195V4.672c0-.151.054-.195.197-.195h.85l.001-.002zm2.478 1.859h-.824c-.153 0-.206-.044-.206-.195V4.678c0-.15.053-.203.206-.203h1.674c.144 0 .197.053.197.203v1.46c0 .15 0 .195-.197.195h-.85v.002zm4.887-1.857h.84c.144 0 .197.053.197.186v1.474c0 .142-.053.195-.187.195H11.71c-.135 0-.188-.053-.188-.195V4.661c0-.142.054-.185.197-.185h.841l.002.002zm-9.816 0h.848c.143 0 .197.044.197.195v1.466a.16.16 0 0 1-.197.195H1.911a.16.16 0 0 1-.196-.195V4.661c0-.132.054-.185.197-.185l.834.002zm7.355 0h.841c.143 0 .197.044.197.195v1.474c0 .133-.054.186-.188.186H9.246c-.134 0-.187-.053-.187-.186V4.661c0-.142.054-.185.197-.185h.84l.005.002zm0-2.618h-.842c-.153 0-.197-.044-.197-.195V.203c0-.15.054-.203.197-.203h1.67c.153 0 .206.053.206.203v1.459c0 .15-.053.195-.206.195h-.829l.002.002z" />
	</symbol>
	<!-- macOS -->
	<symbol id="macos-logo" viewBox="0 0 15 20" fill="currentColor">
		<path d="M14.486 6.577a4.3 4.3 0 0 0-1.517 1.717 4.46 4.46 0 0 0-.445 2.276 4.42 4.42 0 0 0 .743 2.187A4.23 4.23 0 0 0 15 14.237l-.521 1.307c-.483 1.085-1.135 2.086-1.933 2.965-.223.274-.508.49-.829.628a2.15 2.15 0 0 1-1.017.171 5.22 5.22 0 0 1-1.029-.274c-.375-.158-.758-.297-1.147-.416a3.32 3.32 0 0 0-2.114.245c-.37.167-.752.306-1.142.417a1.77 1.77 0 0 1-1.524-.29 5.14 5.14 0 0 1-1.106-1.128A12.46 12.46 0 0 1 .13 11.986a7.95 7.95 0 0 1 .371-4.21c.261-.729.699-1.382 1.274-1.901.567-.512 1.255-.871 2-1.044.837-.181 1.71-.075 2.479.301l.861.345a1.36 1.36 0 0 0 1.003 0l1.737-.645a4.16 4.16 0 0 1 2.516.09c.811.289 1.52.823 2.032 1.532l.082.124v-.001zM7.505 4.394C7.404 2.15 9.002.218 11.137.006c.299 2.152-1.681 4.638-3.631 4.386v.002h0z" />
	</symbol>
	<!-- Windows -->
	<symbol id="windows-logo" viewBox="0 0 16 18" fill="currentColor">
		<path d="M15.363.139v7.728H7.278a.97.97 0 0 1-.039-.168V1.602c0-.259.112-.305.316-.324L12.009.61l3.354-.472v.001zm0 8.432V16.3a2.99 2.99 0 0 1-.325 0l-5.129-.804-2.649-.436v-6.49h8.104 0zm-15-6.238l5.087-.747 1.095-.155v6.436H.364V2.333H.363zm0 6.238h6.194v6.371l-1.781-.257-4.414-.671V8.571z" />
	</symbol>
	<!-- Linux -->
	<symbol id="linux-logo" viewBox="0 0 15 19">
		<path d="M10.493 13.367l.74-.166.813.656 1.075-.656.539 1.013.164.795.799.543.229.374-2.455 1.439-1.018.816h-.881l-.51-.816v-1.268l.229-1.885zm-7.647-.71l1.658 1.987 1.128 2.235v.884l-1.128.487-1.277-.487-1.892-.535-1.175-.353.303-1.036v-1.453l.872-.216.716-.601zm2.529-7.449L6.899 4.14l1.435.353.669.599-.329.398-2.025.972z" fill="#eccf11" />
		<path d="M14.608 15.151c-.483-.115-.824-.581-.814-1.112.007-.396-.148-.775-.424-1.037.22-.784.232-1.618.036-2.41a22.58 22.58 0 0 0-2.44-4.188c-.883-1.335-.142-2.853-.956-4.819S7.038-.269 5.875.583s-.813 2.927-.74 3.892c.079.642.054 1.294-.072 1.927-.106.256-.85 1.187-1.344 1.965s-.829 2.386-1.184 3.041a1.58 1.58 0 0 0-.106 1.258c-.198.108-.35.294-.424.52-.177.442-.566.63-1.274.777s-.672.593-.531 1.112a2.53 2.53 0 0 1-.176 1.484c-.177.668.707.89 1.662 1.001s1.981.741 2.865.853c.478.1.958-.16 1.168-.631a11.56 11.56 0 0 1 2.016-.255c.677-.01 1.354.064 2.015.222a1.54 1.54 0 0 0 .566.666c.555.256 1.199.124 1.628-.334.791-.654 1.646-1.214 2.55-1.668.74-.442.576-1.075.118-1.261l-.002-.001zM8.17 2.444c.509.049.888.527.852 1.075a1.17 1.17 0 0 1-.461.964l-.212-.111a.64.64 0 0 0 .284-.557c.018-.298-.185-.558-.461-.592-.286.034-.492.311-.461.619a.8.8 0 0 0 .071.334l-.387-.15a1.39 1.39 0 0 1-.106-.482c-.03-.265.042-.531.198-.739s.388-.344.638-.374h.006l.04.012H8.17zm-.071 2.297c.247.074.493.26.46.408s-.141.148-.46.37c-.389.27-.804.493-1.239.666-.212.038-.354-.11-.566-.258s-.672-.557-.565-.742l.493-.407c.142-.148.53-.482.776-.442l1.098.407.002-.003zM5.977 2.63c.389 0 .672.482.672 1.038a1.55 1.55 0 0 1-.035.296l-.284.149-.141.11a.77.77 0 0 0 .071-.442c-.035-.297-.247-.557-.461-.52s-.317.334-.282.63.247.557.46.52h.071l-.283.258c-.316-.214-.493-.601-.458-1 .004-.593.322-1.038.676-1.038h-.005V2.63zM5.27 17.15a1.39 1.39 0 0 1-.566.707c-.424.149-1.591-.406-2.123-.629s-1.84-.26-2.017-.482.106-.666.142-1.112-.142-.707-.071-.999.919-.296 1.239-.52.389-.815.671-.963.74.407.956.741a24.05 24.05 0 0 0 1.274 2.07 1.63 1.63 0 0 1 .498 1.186l-.004.002zm4.842-4.002a18.53 18.53 0 0 0-.071 1.89c-.537.741-1.301 1.253-2.157 1.445a6.01 6.01 0 0 1-1.982.072l-.74-.89c.147-.015.282-.092.376-.215s.138-.28.124-.437v-.049c-.071-.593-1.77-1.446-2.051-2.187-.235-.901-.12-1.865.318-2.673.389-.669.637-2.001 1.026-2.485.397-.521.599-1.183.565-1.856-.106-.407.813 1.038 1.415.853s1.875-1.186 2.052-1a27.1 27.1 0 0 1 2.014 5.195c.101.705.065 1.424-.106 2.113 0 0-.677-.182-.782.226v-.004l-.002.003zm4.206 2.706a22.39 22.39 0 0 0-2.123 1.333c-.425.481-.987.853-1.309.742-.453-.248-.665-.819-.493-1.334.15-.643.233-1.302.247-1.964-.035-.442-.106-1.038 0-1.149a.34.34 0 0 1 .284-.038s-.072.854.388 1.075a1.47 1.47 0 0 0 1.417-.335 2.26 2.26 0 0 0 .354-.557c.142.109.211.298.177.482a1.21 1.21 0 0 0 .46 1.037c.389.223.885.482.637.707h-.035l-.003-.001z" fill="#000" />
	</symbol>
	<!-- Linxu inactive -->
	<symbol id="linux-logo-inactive" viewBox="0 0 15 19">
		<path d="M14.608 15.151c-.483-.115-.824-.581-.814-1.112.007-.396-.148-.775-.424-1.037.22-.784.232-1.618.036-2.41a22.58 22.58 0 0 0-2.44-4.188c-.883-1.335-.142-2.853-.956-4.819S7.038-.269 5.875.583s-.813 2.927-.74 3.892c.079.642.054 1.294-.072 1.927-.106.256-.85 1.187-1.344 1.965s-.829 2.386-1.184 3.041a1.58 1.58 0 0 0-.106 1.258c-.198.108-.35.294-.424.52-.177.442-.566.63-1.274.777s-.672.593-.531 1.112a2.53 2.53 0 0 1-.176 1.484c-.177.668.707.89 1.662 1.001s1.981.741 2.865.853c.478.1.958-.16 1.168-.631a11.56 11.56 0 0 1 2.016-.255c.677-.01 1.354.064 2.015.222a1.54 1.54 0 0 0 .566.666c.555.256 1.199.124 1.628-.334.791-.654 1.646-1.214 2.55-1.668.74-.442.576-1.075.118-1.261l-.002-.001zM8.17 2.444c.509.049.888.527.852 1.075a1.17 1.17 0 0 1-.461.964l-.212-.111a.64.64 0 0 0 .284-.557c.018-.298-.185-.558-.461-.592-.286.034-.492.311-.461.619a.8.8 0 0 0 .071.334l-.387-.15a1.39 1.39 0 0 1-.106-.482c-.03-.265.042-.531.198-.739s.388-.344.638-.374h.006l.04.012H8.17zm-.071 2.297c.247.074.493.26.46.408s-.141.148-.46.37c-.389.27-.804.493-1.239.666-.212.038-.354-.11-.566-.258s-.672-.557-.565-.742l.493-.407c.142-.148.53-.482.776-.442l1.098.407.002-.003zM5.977 2.63c.389 0 .672.482.672 1.038a1.55 1.55 0 0 1-.035.296l-.284.149-.141.11a.77.77 0 0 0 .071-.442c-.035-.297-.247-.557-.461-.52s-.317.334-.282.63.247.557.46.52h.071l-.283.258c-.316-.214-.493-.601-.458-1 .004-.593.322-1.038.676-1.038h-.005V2.63zM5.27 17.15a1.39 1.39 0 0 1-.566.707c-.424.149-1.591-.406-2.123-.629s-1.84-.26-2.017-.482.106-.666.142-1.112-.142-.707-.071-.999.919-.296 1.239-.52.389-.815.671-.963.74.407.956.741a24.05 24.05 0 0 0 1.274 2.07 1.63 1.63 0 0 1 .498 1.186l-.004.002zm4.842-4.002a18.53 18.53 0 0 0-.071 1.89c-.537.741-1.301 1.253-2.157 1.445a6.01 6.01 0 0 1-1.982.072l-.74-.89c.147-.015.282-.092.376-.215s.138-.28.124-.437v-.049c-.071-.593-1.77-1.446-2.051-2.187-.235-.901-.12-1.865.318-2.673.389-.669.637-2.001 1.026-2.485.397-.521.599-1.183.565-1.856-.106-.407.813 1.038 1.415.853s1.875-1.186 2.052-1a27.1 27.1 0 0 1 2.014 5.195c.101.705.065 1.424-.106 2.113 0 0-.677-.182-.782.226v-.004l-.002.003zm4.206 2.706a22.39 22.39 0 0 0-2.123 1.333c-.425.481-.987.853-1.309.742-.453-.248-.665-.819-.493-1.334.15-.643.233-1.302.247-1.964-.035-.442-.106-1.038 0-1.149a.34.34 0 0 1 .284-.038s-.072.854.388 1.075a1.47 1.47 0 0 0 1.417-.335 2.26 2.26 0 0 0 .354-.557c.142.109.211.298.177.482a1.21 1.21 0 0 0 .46 1.037c.389.223.885.482.637.707h-.035l-.003-.001z" fill="currentColor" />
	</symbol>
</svg>
