<svg xmlns="http://www.w3.org/2000/svg" xmlns:xlink="http://www.w3.org/1999/xlink">
	<!-- MinIO Logo -->
	<symbol id="minio-logo" viewBox="0 0 162.612 24.465">
		<path d="M52.751.414h9.108v23.63h-9.108zM41.711.74l-18.488 9.92a.919.919 0 0 1-.856 0L3.879.74A2.808 2.808 0 0 0 2.558.414h-.023A2.4 2.4 0 0 0 0 2.641v21.376h9.1V13.842a.918.918 0 0 1 1.385-.682l10.361 5.568a3.634 3.634 0 0 0 3.336.028l10.933-5.634a.917.917 0 0 1 1.371.69v10.205h9.1V2.641A2.4 2.4 0 0 0 43.055.414h-.023a2.808 2.808 0 0 0-1.321.326zm65.564-.326h-9.237v10.755a.913.913 0 0 1-1.338.706L72.762.675a2.824 2.824 0 0 0-1.191-.261h-.016a2.4 2.4 0 0 0-2.535 2.227v21.377h9.163V13.275a.914.914 0 0 1 1.337-.707l24.032 11.2a2.813 2.813 0 0 0 1.188.26 2.4 2.4 0 0 0 2.535-2.227zm7.161 23.63V.414h4.191v23.63zm28.856.421c-11.274 0-19.272-4.7-19.272-12.232C124.02 4.741 132.066 0 143.292 0s19.32 4.7 19.32 12.233-7.902 12.232-19.32 12.232zm0-21.333c-8.383 0-14.84 3.217-14.84 9.1 0 5.926 6.457 9.1 14.84 9.1s14.887-3.174 14.887-9.1c0-5.883-6.504-9.1-14.887-9.1z" fill="currentColor" />
	</symbol>
	<!-- Moon -->
	<symbol id="moon" viewBox="0 0 48 48">
		<path d="M24 42q-7.5 0-12.75-5.25T6 24q0-6.75 3.975-11.45Q13.95 7.85 20.4 6.5q2.05-.4 2.8.7t-.05 3q-.45 1.15-.7 2.35-.25 1.2-.25 2.45 0 4.5 3.15 7.65Q28.5 25.8 33 25.8q1.25 0 2.425-.225 1.175-.225 2.275-.625 2.15-.8 3.2.075 1.05.875.55 2.975-1.35 6.05-6.05 10.025Q30.7 42 24 42Zm0-3q5.45 0 9.5-3.375t5.05-7.925q-1.25.55-2.675.825Q34.45 28.8 33 28.8q-5.75 0-9.775-4.025T19.2 15q0-1.2.25-2.575.25-1.375.9-3.125-4.9 1.35-8.125 5.475Q9 18.9 9 24q0 6.25 4.375 10.625T24 39Zm-.2-14.85Z" />
	</symbol>
	<!-- Sun -->
	<symbol id="sun" viewBox="0 0 17 17">
		<path d="M8.5 2.898c-.167 0-.306-.055-.415-.164s-.164-.248-.164-.415V.58c0-.167.055-.306.164-.415S8.333 0 8.5 0s.306.055.415.164.164.248.164.415v1.739c0 .167-.055.306-.164.415s-.248.164-.415.164zm3.96 1.642c-.116-.116-.174-.251-.174-.406s.058-.29.174-.406l1.217-1.236c.116-.116.254-.174.415-.174s.299.058.415.174.174.251.174.406-.058.29-.174.406L13.272 4.54c-.116.116-.251.174-.406.174s-.29-.058-.406-.174zm2.222 4.54c-.167 0-.306-.055-.415-.164s-.164-.248-.164-.415.055-.306.164-.415.248-.164.415-.164h1.739c.167 0 .306.055.415.164S17 8.333 17 8.5s-.055.306-.164.415-.248.164-.415.164h-1.739zM8.5 17c-.167 0-.306-.055-.415-.164s-.164-.248-.164-.415v-1.739c0-.167.055-.306.164-.415s.248-.164.415-.164.306.055.415.164.164.248.164.415v1.739c0 .167-.055.306-.164.415S8.667 17 8.5 17zM3.728 4.54L2.492 3.323c-.116-.116-.174-.254-.174-.415s.058-.299.174-.415.251-.174.406-.174.29.058.406.174L4.54 3.728c.116.116.174.251.174.406s-.058.29-.174.406c-.116.103-.254.155-.415.155s-.293-.052-.396-.155zm9.968 9.968l-1.236-1.236c-.116-.116-.174-.251-.174-.406s.058-.29.174-.406c.103-.103.235-.155.396-.155s.299.052.415.155l1.256 1.217c.116.116.171.254.164.415s-.061.299-.164.415c-.116.116-.254.174-.415.174s-.299-.058-.415-.174h0zM.58 9.08c-.167 0-.306-.055-.415-.164S0 8.667 0 8.5s.055-.306.164-.415.248-.164.415-.164h1.739c.167 0 .306.055.415.164s.164.248.164.415-.055.306-.164.415-.248.164-.415.164H.58zm1.912 5.428c-.116-.116-.174-.251-.174-.406s.058-.29.174-.406l1.236-1.236c.103-.103.235-.155.396-.155s.299.052.415.155c.116.116.174.254.174.415s-.058.299-.174.415l-1.217 1.217c-.116.116-.254.174-.415.174s-.299-.058-.415-.174h0zM8.5 13.136a4.47 4.47 0 0 1-3.284-1.352A4.47 4.47 0 0 1 3.864 8.5a4.47 4.47 0 0 1 1.352-3.284A4.47 4.47 0 0 1 8.5 3.864a4.47 4.47 0 0 1 3.284 1.352A4.47 4.47 0 0 1 13.136 8.5a4.47 4.47 0 0 1-1.352 3.284A4.47 4.47 0 0 1 8.5 13.136zm0-1.159a3.35 3.35 0 0 0 2.463-1.014A3.35 3.35 0 0 0 11.977 8.5a3.35 3.35 0 0 0-1.014-2.463A3.35 3.35 0 0 0 8.5 5.023a3.35 3.35 0 0 0-2.463 1.014A3.35 3.35 0 0 0 5.023 8.5a3.35 3.35 0 0 0 1.014 2.463A3.35 3.35 0 0 0 8.5 11.977z" fill="currentColor" />
	</symbol>
	<!-- Book -->
	<symbol id="book-active" viewBox="0 0 18 16">
		<path d="M8.5 14V3C7.3 0.600001 3 1.33333 1 2V13.5C5 11.9 7.66667 13.1667 8.5 14Z" fill="currentColor" />
		<path d="M4.25455 12.5C4.99091 12.5 5.70341 12.6042 6.39205 12.8125C7.08068 13.0208 7.75909 13.3333 8.42727 13.75V3.075C7.81364 2.575 7.14886 2.1875 6.43295 1.9125C5.71705 1.6375 4.99091 1.5 4.25455 1.5C3.73636 1.5 3.22841 1.57917 2.73068 1.7375C2.23295 1.89583 1.73182 2.09167 1.22727 2.325V13.175C1.65 12.9417 2.13068 12.7708 2.66932 12.6625C3.20795 12.5542 3.73636 12.5 4.25455 12.5ZM9.65455 13.75C10.3364 13.3333 11.0045 13.0208 11.6591 12.8125C12.3136 12.6042 13.0091 12.5 13.7455 12.5C14.2636 12.5 14.7989 12.55 15.3511 12.65C15.9034 12.75 16.3773 12.8833 16.7727 13.05V2.325C16.3091 2.04167 15.8182 1.83333 15.3 1.7C14.7818 1.56667 14.2636 1.5 13.7455 1.5C13.0091 1.5 12.2966 1.6375 11.608 1.9125C10.9193 2.1875 10.2682 2.575 9.65455 3.075V13.75ZM9.74042 15.4364C9.32728 15.7372 8.75831 15.7329 8.34613 15.4307C7.84896 15.0663 7.32374 14.7685 6.77045 14.5375C5.95227 14.1958 5.11364 14.025 4.25455 14.025C3.75 14.025 3.25909 14.1 2.78182 14.25C2.30455 14.4 1.82727 14.5833 1.35 14.8C1.03636 14.9833 0.732955 14.9583 0.439773 14.725C0.146591 14.4917 0 14.1583 0 13.725V2.15C0 1.9 0.0477272 1.67083 0.143182 1.4625C0.238636 1.25417 0.381818 1.09167 0.572727 0.975C1.14545 0.641667 1.74205 0.395834 2.3625 0.2375C2.98295 0.0791669 3.61364 0 4.25455 0C5.11364 0 5.94886 0.141667 6.76023 0.425C7.57159 0.708334 8.33182 1.14167 9.04091 1.725C9.73636 1.14167 10.483 0.708334 11.2807 0.425C12.0784 0.141667 12.9 0 13.7455 0C14.3864 0 15.0136 0.0791669 15.6273 0.2375C16.2409 0.395834 16.8341 0.641667 17.4068 0.975C17.5977 1.09167 17.7443 1.25417 17.8466 1.4625C17.9489 1.67083 18 1.9 18 2.15V13.725C18 14.1917 17.8466 14.5458 17.5398 14.7875C17.233 15.0292 16.9295 15.0333 16.6295 14.8C16.1659 14.5667 15.6955 14.3792 15.2182 14.2375C14.7409 14.0958 14.25 14.025 13.7455 14.025C12.8864 14.025 12.0614 14.2 11.2705 14.55C10.7389 14.7852 10.2289 15.0807 9.74042 15.4364Z" fill="currentColor" />
	</symbol>
	<!-- Book Active -->
	<symbol id="book" viewBox="0 0 18 16">
		<path d="M4.25455 12.5C4.99091 12.5 5.70341 12.6042 6.39205 12.8125C7.08068 13.0208 7.75909 13.3333 8.42727 13.75V3.075C7.81364 2.575 7.14886 2.1875 6.43295 1.9125C5.71705 1.6375 4.99091 1.5 4.25455 1.5C3.73636 1.5 3.22841 1.57917 2.73068 1.7375C2.23295 1.89583 1.73182 2.09167 1.22727 2.325V13.175C1.65 12.9417 2.13068 12.7708 2.66932 12.6625C3.20795 12.5542 3.73636 12.5 4.25455 12.5ZM9.65455 13.75C10.3364 13.3333 11.0045 13.0208 11.6591 12.8125C12.3136 12.6042 13.0091 12.5 13.7455 12.5C14.2636 12.5 14.7989 12.55 15.3511 12.65C15.9034 12.75 16.3773 12.8833 16.7727 13.05V2.325C16.3091 2.04167 15.8182 1.83333 15.3 1.7C14.7818 1.56667 14.2636 1.5 13.7455 1.5C13.0091 1.5 12.2966 1.6375 11.608 1.9125C10.9193 2.1875 10.2682 2.575 9.65455 3.075V13.75ZM9.74042 15.4364C9.32728 15.7372 8.75831 15.7329 8.34613 15.4307C7.84896 15.0663 7.32374 14.7685 6.77045 14.5375C5.95227 14.1958 5.11364 14.025 4.25455 14.025C3.75 14.025 3.25909 14.1 2.78182 14.25C2.30455 14.4 1.82727 14.5833 1.35 14.8C1.03636 14.9833 0.732955 14.9583 0.439773 14.725C0.146591 14.4917 0 14.1583 0 13.725V2.15C0 1.9 0.0477272 1.67083 0.143182 1.4625C0.238636 1.25417 0.381818 1.09167 0.572727 0.975C1.14545 0.641667 1.74205 0.395834 2.3625 0.2375C2.98295 0.0791669 3.61364 0 4.25455 0C5.11364 0 5.94886 0.141667 6.76023 0.425C7.57159 0.708334 8.33182 1.14167 9.04091 1.725C9.73636 1.14167 10.483 0.708334 11.2807 0.425C12.0784 0.141667 12.9 0 13.7455 0C14.3864 0 15.0136 0.0791669 15.6273 0.2375C16.2409 0.395834 16.8341 0.641667 17.4068 0.975C17.5977 1.09167 17.7443 1.25417 17.8466 1.4625C17.9489 1.67083 18 1.9 18 2.15V13.725C18 14.1917 17.8466 14.5458 17.5398 14.7875C17.233 15.0292 16.9295 15.0333 16.6295 14.8C16.1659 14.5667 15.6955 14.3792 15.2182 14.2375C14.7409 14.0958 14.25 14.025 13.7455 14.025C12.8864 14.025 12.0614 14.2 11.2705 14.55C10.7389 14.7852 10.2289 15.0807 9.74042 15.4364Z" fill="currentColor" />
	</symbol>
	<!-- Hybrid Cloud -->
	<symbol id="hybrid-cloud" viewBox="0 0 33.976 26.825">
		<path d="M33.226 18.186l-16.237-7.9-16.239 7.9 16.239 7.89z" fill="none" stroke="#c72c48" stroke-linejoin="round" stroke-width="1.5" />
		<path d="M9.24 18.02h1.117v.559H9.24zm1.117-.545H9.24v-1.093h1.117zm0-1.64H9.24v-1.093h1.117zm0-1.639H9.24v-1.093h1.117zm0-1.639H9.24v-1.092h1.117zm0-1.638H9.24V9.826h1.117zm0-1.64H9.24V8.187h1.117zm0-1.639H9.24V6.547h1.117zm0-1.637H9.24V4.886h.559a.56.56 0 0 1 .559.559zm-1.571 0h-.908V4.886h.908zm-1.363 0h-.908V4.886h.908zM5.502 4.885h.559v1.117h-.559zm11.606 11.314h-1.117v-1.117h1.117zm0-1.676h-1.117v-1.117h1.117zm0-1.676h-1.117v-1.118h1.117zm0-1.676h-1.117v-1.117h1.117zm0-1.676h-1.117V8.378h1.117zm0-1.676h-1.117V6.702h1.117zm0-1.676h-1.117V5.026h1.117zm0-1.676h-1.117V3.35h1.117zm0-1.676h-1.117V1.674h1.117zm0-1.676h-1.117V-.002h1.117zm6.43 18.063h-1.117v-1.117h1.117zm0-1.676h-1.117v-1.117h1.117zm0-1.676h-1.117v-1.117h1.117zm0-1.676h-1.117v-1.117h1.117zm0-1.676h-1.117v-1.117h1.117zm0-1.676h-1.117V9.681h1.117zm0-1.676h-1.117v-.628a.56.56 0 0 1 .559-.559h.488v.559h.07zm4.935-.069h-1.095V7.936h1.095zm-1.653 0h-1.117V7.936h1.117zm-1.676 0h-1.117V7.936h1.117z" fill="#c72c48" />
	</symbol>
	<!-- Baremetal -->
	<symbol id="baremetal" viewBox="0 0 32.731 27.434" stroke="#c72c48" stroke-linejoin="round" stroke-width="1.5">
		<path d="M31.122 8.142L15.936.75.749 8.142l15.187 7.379zM3.635 13.136l-2.026.986 15.187 7.379 15.186-7.379-2.027-.987M2.776 18.318l-2.026.986 15.187 7.379 15.186-7.379-2.027-.986" />
		<path d="M2.776 18.318l-2.026.986 15.187 7.379 15.186-7.379-2.027-.986" />
	</symbol>
	<!-- ECC -->
	<symbol id="ecc" viewBox="0 0 32.731 27.434" stroke="#c72c48" stroke-linejoin="round" stroke-width="1.5">
		<g fill="#c72c48" fill-rule="nonzero">
			<path d="M22.07 10.67H7.93a2.76 2.76 0 1 1 0-5.51h14.14a2.76 2.76 0 1 1 0 5.51h0zM7.93 6.6a1.32 1.32 0 1 0 0 2.63h14.14a1.32 1.32 0 0 0 0-2.63H7.93zm19.44 22.24H2.62A2.62 2.62 0 0 1 0 26.22V2.63A2.62 2.62 0 0 1 2.62 0h24.75A2.63 2.63 0 0 1 30 2.63v23.59a2.63 2.63 0 0 1-2.63 2.62zm-24.75-27a.79.79 0 0 0-.79.79v23.59a.78.78 0 0 0 .79.78h24.75a.78.78 0 0 0 .79-.78V2.63a.79.79 0 0 0-.79-.79H2.62z" />
			<use xlink:href="#B" />
			<path d="M8.44 17.13a2 2 0 1 1 0-4 2 2 0 1 1 0 4zm0-2.49a.52.52 0 0 0-.52.52.53.53 0 0 0 .811.519.53.53 0 0 0 .239-.519.52.52 0 0 0-.53-.52h0z" />
			<use xlink:href="#B" x="6.53" />
			<path d="M14.98 23.68a2 2 0 1 1 0-4 2 2 0 1 1 0 4zm0-2.49a.53.53 0 1 0 .457.525.53.53 0 0 0-.457-.525h0zm-6.55 2.49a2 2 0 1 1 0-4 2 2 0 1 1 0 4zm0-2.49a.53.53 0 1 0 .52.52.53.53 0 0 0-.52-.52h0zm13.1 2.49a2 2 0 1 1 0-4 2 2 0 1 1 0 4zm0-2.49a.53.53 0 1 0 .519.239.53.53 0 0 0-.519-.239h0z" />
		</g>
		<defs>
			<path id="B" d="M15 17.13a2 2 0 1 1 0-4 2 2 0 1 1 0 4zm0-2.49a.52.52 0 0 0-.53.52.53.53 0 0 0 .53.53.52.52 0 0 0 .52-.53.52.52 0 0 0-.52-.52h0z" />
		</defs>
	</symbol>
	<!-- Ref hardware -->
	<symbol id="ref-hardware" viewBox="0 0 31.737 18.835">
		<g fill="none" stroke-width="1.5" stroke="#c72c48">
			<path d="M3.464 14.617h24.809" stroke-dasharray="0.5 0.5" />
			<path d="M30.979 18.085H.75v-7.341a3.44 3.44 0 0 0 1.541-2.871c0-1.155-.578-2.233-1.541-2.871V1.749a1 1 0 0 1 1-1h28.264a.97.97 0 0 1 .973.969h0v3.328c-.925.643-1.477 1.698-1.478 2.824s.553 2.182 1.478 2.826z" stroke-miterlimit="10" />
		</g>
		<g fill="#c72c48" stroke-width=".6">
			<rect width=".979" height="5.58" rx=".489" stroke="#c72c48" x="7.197" y="4.686" />
			<rect width=".979" height="5.58" rx=".489" stroke="#c72c48" x="12.232" y="4.686" />
			<rect width=".979" height="5.58" rx=".489" stroke="#c72c48" x="17.267" y="4.686" />
			<rect width=".979" height="5.58" rx=".489" stroke="#c72c48" x="22.302" y="4.686" />
		</g>
	</symbol>
	<!-- Menu -->
	<symbol id="menu" viewBox="0 0 17 13">
		<path d="M16.034 0H.966C.433 0 0 .346 0 .773s.433.773.966.773h15.068c.533 0 .966-.346.966-.773S16.567 0 16.034 0zm0 5.409H.966c-.533 0-.966.346-.966.773s.433.773.966.773h15.068c.533 0 .966-.346.966-.773s-.433-.773-.966-.773zm0 5.409H.966c-.533 0-.966.346-.966.773s.433.773.966.773h15.068c.533 0 .966-.346.966-.773s-.433-.773-.966-.773z" fill="currentColor">
		</path>
	</symbol>
	<!-- Search -->
	<symbol id="search" viewBox="0 0 16 16">
		<path d="M11.623 11.623 15 15l-3.377-3.377a6.223 6.223 0 1 1-8.8-8.8 6.223 6.223 0 0 1 8.8 8.8Z" stroke="currentColor" stroke-width="1.5" fill="none" fill-rule="evenodd" stroke-linecap="round" stroke-linejoin="round" />
	</symbol>
	<!-- No result -->
	<symbol id="no-result" viewBox="0 0 56 56">
		<path d="M44.26 12.728c5.903 8.844 5.017 20.636-2.951 28.595h0L54 54 41.309 41.324c-7.722 7.709-19.803 8.94-28.924 2.948m-6.493-6.486C-.178 28.73.95 16.663 8.593 8.887S28.295-.24 37.472 5.653M4.415 51.642L51.639 4.474" stroke="currentColor" stroke-width="2.5" fill="none" stroke-linecap="round" stroke-linejoin="round">
		</path>
	</symbol>
	<!-- Chevron down -->
	<symbol id="chevron-down" viewBox="0 0 9 5">
		<path d="M8.071.135a.562.562 0 1 1 .733.855L4.866 4.365a.562.562 0 0 1-.732 0L.196.99A.562.562 0 1 1 .93.135L4.5 3.197 8.071.135z" fill="currentColor" fill-rule="evenodd" />
	</symbol>
</svg>
