<svg xmlns="http://www.w3.org/2000/svg" width="30" height="58" fill="#fff" xmlns:v="https://vecta.io/nano"><path d="M22.426 2.813l7.547 12.352c.018.024.027.054.027.084s-.009.06-.027.084c-.013.014-.028.025-.045.032s-.036.011-.055.011-.037-.004-.055-.011-.033-.019-.045-.032L19.995 5.14l2.43-2.327z"/><path d="M5.756 36.065a33.58 33.58 0 0 1 6.652-9.434c1.044-1.044 2.155-2.019 3.326-2.918v7.196l-9.978 5.157zM0 42.732l15.734-7.995v18.308l3.542 4.605V32.867l2.151-1.111a10.67 10.67 0 0 0 3.771-3.174c.992-1.338 1.657-2.889 1.943-4.53s.182-3.326-.3-4.92-1.332-3.053-2.479-4.26l-8.099-8.467a1.8 1.8 0 0 1 .088-2.534c.35-.323.813-.496 1.289-.479s.927.22 1.253.567l1.135 1.183 2.398-2.335C19.556-.92 16.03-.448 14.007 1.414c-.995.938-1.577 2.233-1.619 3.599s.46 2.695 1.395 3.692l8.187 8.531c.743.797 1.299 1.751 1.626 2.791a7.31 7.31 0 0 1-.886 6.238 7.31 7.31 0 0 1-2.339 2.228l-1.111.576V17.5A37.04 37.04 0 0 0 6.798 27.931 37.04 37.04 0 0 0 0 42.692v.04z"/><path d="M19.276 32.859v3.742l-3.542 1.799v-3.718l3.542-1.823z"/></svg>