<svg width="10" height="20" viewBox="0 0 10 20" fill="none" xmlns="http://www.w3.org/2000/svg">
<path d="M7.47527 0.938477L9.991 5.05586C9.99686 5.06402 10 5.07381 10 5.08385C10 5.09389 9.99686 5.10367 9.991 5.11183C9.98676 5.11643 9.98161 5.1201 9.97588 5.12262C9.97014 5.12513 9.96395 5.12643 9.95769 5.12643C9.95143 5.12643 9.94524 5.12513 9.93951 5.12262C9.93377 5.1201 9.92862 5.11643 9.92438 5.11183L6.66512 1.71398L7.47527 0.938477Z" fill="#C72E49"/>
<path d="M1.91878 12.0215C2.4708 10.8531 3.22097 9.78921 4.13604 8.87683C4.48411 8.52891 4.85443 8.20398 5.24467 7.90411V10.3026L1.91878 12.0215ZM0 14.2441L5.24467 11.5791V17.6819L6.42525 19.2169V10.9555L7.14213 10.5851C7.63797 10.3353 8.06846 9.97293 8.39918 9.52697C8.72989 9.08101 8.95165 8.56385 9.0467 8.01684C9.14175 7.46984 9.10746 6.90818 8.94658 6.3768C8.7857 5.84542 8.50268 5.35907 8.12018 4.95665L5.42056 2.13444C5.31289 2.0183 5.25554 1.86428 5.26103 1.706C5.26653 1.54772 5.33441 1.39805 5.44987 1.28965C5.56646 1.18182 5.72092 1.1244 5.87964 1.12989C6.03835 1.13538 6.18847 1.20333 6.29733 1.31896L6.67576 1.71338L7.47525 0.935204C6.51853 -0.306675 5.34327 -0.149441 4.66904 0.471498C4.33736 0.784199 4.14325 1.21568 4.12926 1.6713C4.11527 2.12692 4.28255 2.5695 4.59442 2.90196L7.32335 5.74548C7.57114 6.01129 7.75632 6.32918 7.86531 6.67585C7.9743 7.02251 8.00435 7.38917 7.95324 7.74896C7.90213 8.10874 7.77118 8.45253 7.56996 8.75513C7.36874 9.05773 7.10237 9.31148 6.79036 9.49777L6.41992 9.68965V5.83343C4.79494 6.67061 3.37612 7.85816 2.2659 9.31034C1.15567 10.7625 0.38175 12.4431 0 14.2308L0 14.2441Z" fill="#C72E49"/>
<path d="M6.42526 10.9546V12.2018L5.24467 12.8014V11.5622L6.42526 10.9546Z" fill="#C72E49"/>
</svg>
